<mxfile host="app.diagrams.net" modified="2023-10-05T12:22:20.697Z" agent="Mozilla/5.0 (Windows NT 10.0; Win64; x64) AppleWebKit/537.36 (KHTML, like Gecko) Chrome/117.0.0.0 Safari/537.36 Edg/117.0.2045.47" version="22.0.2" etag="Sgyx4tStCJAnOPE_n6Py" type="github">
  <diagram name="Page-1" id="31hU8fQfpK4Si7qJFQRP">
    <mxGraphModel>
      <root>
        <mxCell id="0" />
        <mxCell id="1" parent="0" />
      </root>
    </mxGraphModel>
  </diagram>
</mxfile>
